<svg width="15" height="17" viewBox="0 0 15 17" fill="none" xmlns="http://www.w3.org/2000/svg">
<path fill-rule="evenodd" clip-rule="evenodd" d="M7.13631 0L7.63826 2.01114L8.14021 0H7.13631ZM9.16801 2.56112L10.3791 0.837289L9.43891 0.508941L9.16801 2.56112ZM4.92135 0.829081L6.1324 2.56112L5.86151 0.508941L4.92135 0.837289V0.829081ZM12.8331 14.8496C12.2862 15.4588 11.5457 15.8461 10.7456 15.9413L11.0722 15.6376C12.9765 13.6675 13.3509 11.5743 12.1877 9.37436L11.4626 8.06096L10.8252 6.6901C10.6261 6.23042 10.6739 5.88565 10.9926 5.63118C11.0544 5.58299 11.1253 5.54861 11.2008 5.53024C11.2762 5.51186 11.3545 5.5099 11.4308 5.52447C11.6539 5.56551 11.861 5.71327 12.0044 5.9349L13.8927 9.34973C14.6656 10.6795 14.801 12.822 12.8331 14.8496ZM4.06883 14.4884L0.762322 11.0818C0.654635 10.9514 0.598553 10.784 0.605236 10.6129C0.61192 10.4418 0.68088 10.2796 0.798392 10.1585C0.915904 10.0374 1.07335 9.96639 1.23941 9.95951C1.40546 9.95262 1.56794 10.0104 1.69452 10.1213L3.41549 11.8944C3.47264 11.9345 3.54166 11.9527 3.61047 11.9457C3.67929 11.9387 3.74352 11.907 3.79194 11.8561C3.84036 11.8052 3.86988 11.7385 3.87535 11.6674C3.88081 11.5964 3.86187 11.5257 3.82183 11.4676L2.10883 9.6945L0.945574 8.51244C0.837887 8.38203 0.781805 8.21463 0.788488 8.04355C0.795172 7.87247 0.864132 7.71025 0.981644 7.58918C1.09916 7.46811 1.2566 7.39707 1.42266 7.39018C1.58871 7.38329 1.75119 7.44107 1.87777 7.55202L4.61062 10.3758C4.63739 10.4046 4.66955 10.4275 4.70515 10.4432C4.74075 10.4589 4.77906 10.4669 4.81777 10.4669C4.85648 10.4669 4.89479 10.4589 4.93039 10.4432C4.96599 10.4275 4.99815 10.4046 5.02492 10.3758C5.05288 10.3482 5.07513 10.3151 5.09033 10.2784C5.10553 10.2417 5.11337 10.2023 5.11337 10.1624C5.11337 10.1225 5.10553 10.083 5.09033 10.0464C5.07513 10.0097 5.05288 9.97655 5.02492 9.94897L2.29208 7.12517L1.51923 6.32892C1.39854 6.20164 1.33097 6.03076 1.33097 5.85282C1.33097 5.67488 1.39854 5.504 1.51923 5.37671C1.64412 5.25184 1.8113 5.182 1.98533 5.182C2.15936 5.182 2.32654 5.25184 2.45143 5.37671L3.22427 6.17296L5.96509 8.98855C5.99173 9.0161 6.0234 9.03796 6.05826 9.05287C6.09313 9.06779 6.13051 9.07546 6.16826 9.07546C6.20601 9.07546 6.24339 9.06779 6.27825 9.05287C6.31312 9.03796 6.34478 9.0161 6.37143 8.98855C6.42592 8.9317 6.45648 8.85502 6.45648 8.77512C6.45648 8.69522 6.42592 8.61854 6.37143 8.56169L3.63858 5.7461C3.54589 5.65174 3.48271 5.53097 3.45715 5.39932C3.4316 5.26767 3.44484 5.13116 3.49517 5.00732C3.54427 4.88343 3.62811 4.77743 3.73597 4.70286C3.84382 4.62829 3.97081 4.58853 4.1007 4.58867C4.27598 4.58867 4.4433 4.66255 4.56281 4.78568L9.18395 9.53853C9.2343 9.58128 9.297 9.60561 9.36221 9.60771C9.42743 9.60981 9.49147 9.58956 9.54432 9.55013C9.59717 9.5107 9.63582 9.45433 9.65423 9.38984C9.67265 9.32535 9.66977 9.25639 9.64606 9.19376L8.75371 7.25651C8.54655 6.79682 8.59436 6.45205 8.91305 6.19758C8.97489 6.14939 9.04579 6.11501 9.12124 6.09664C9.19669 6.07826 9.27504 6.0763 9.35127 6.09087C9.57436 6.13191 9.78948 6.27967 9.93289 6.50131L11.6857 9.66987C12.7215 11.6235 12.3789 13.4377 10.6579 15.2108C10.2352 15.6681 9.70895 16.0103 9.12632 16.2065C8.54368 16.4028 7.92288 16.4471 7.31956 16.3354C6.08025 16.0772 4.94808 15.4324 4.07679 14.4884H4.06883ZM6.64232 4.22749L8.33143 5.95953C8.00476 6.36997 7.95696 6.91995 8.22785 7.51919L8.40314 7.89679L5.59858 4.99911C5.55003 4.90835 5.52275 4.80715 5.51891 4.7036C5.51891 4.5148 5.59062 4.35062 5.71013 4.21928C5.83596 4.0963 6.00279 4.02774 6.17623 4.02774C6.34966 4.02774 6.51649 4.0963 6.64232 4.21928V4.22749ZM12.5064 5.62297C12.398 5.44467 12.2549 5.29139 12.0863 5.17273C11.9177 5.05407 11.727 4.9726 11.5264 4.93344C11.3708 4.90511 11.2113 4.91017 11.0578 4.94831C10.9042 4.98644 10.76 5.05684 10.634 5.15508C10.395 5.35208 10.2357 5.60655 10.1719 5.88565C9.97273 5.68043 9.71777 5.5573 9.44688 5.49984C9.22379 5.46701 9.0007 5.49984 8.79354 5.58193L7.05663 3.79243C6.82374 3.55382 6.50865 3.41989 6.18021 3.41989C5.85177 3.41989 5.53668 3.55382 5.30379 3.79243C5.14444 3.9566 5.04086 4.15361 4.98509 4.36704C4.82847 4.20391 4.6322 4.08713 4.41678 4.02892C4.20137 3.9707 3.97473 3.97318 3.76056 4.03611C3.5464 4.09903 3.35257 4.22008 3.19936 4.3866C3.04615 4.55312 2.93918 4.759 2.88964 4.98269C2.65588 4.74005 2.3395 4.60088 2.00773 4.59475C1.67596 4.58862 1.35495 4.71601 1.11289 4.94986C0.881298 5.1898 0.751299 5.51443 0.751299 5.85282C0.751299 6.1912 0.881298 6.51583 1.11289 6.75578C0.921672 6.83786 0.714517 6.95278 0.539232 7.12517C0.307639 7.36511 0.17764 7.68974 0.17764 8.02813C0.17764 8.36651 0.307639 8.69114 0.539232 8.93109L0.953541 9.35794C0.739554 9.41072 0.543002 9.52108 0.383966 9.67774C0.22493 9.83441 0.109111 10.0318 0.0483424 10.2496C-0.0124265 10.4675 -0.0159671 10.6981 0.0380824 10.9179C0.0921318 11.1376 0.201834 11.3386 0.35598 11.5004L3.65452 14.9152C4.61488 15.9484 5.86149 16.6508 7.22395 16.9264C8.13572 17.1035 9.07881 16.9589 9.90102 16.5159C10.5143 16.5977 11.1376 16.528 11.7195 16.3125C12.3013 16.0969 12.8251 15.7418 13.2474 15.2764C15.4384 13.0026 15.2711 10.5646 14.3867 9.04601L12.4984 5.62297H12.5064Z" fill="#5F5F5F" fill-opacity="0.75"/>
</svg>
