<svg width="15" height="16" viewBox="0 0 15 16" fill="none" xmlns="http://www.w3.org/2000/svg">
<path d="M12.9302 12.3227C13.598 11.6927 14.127 10.9303 14.4832 10.0842C14.8395 9.23802 15.0151 8.32681 14.999 7.40887C14.999 3.60345 11.7387 0.5 7.56414 0.5C3.38955 0.5 0 3.60345 0 7.40887C0 11.2235 3.38955 14.3177 7.57338 14.3177C8.31607 14.319 9.05551 14.2195 9.7715 14.0222C9.98393 14.2069 10.2148 14.3824 10.4642 14.5394C11.4432 15.1767 12.4961 15.5 13.6044 15.5C13.8076 15.5 13.9738 15.3984 14.0477 15.2321C14.0863 15.1564 14.1033 15.0715 14.0968 14.9868C14.0903 14.9021 14.0605 14.8208 14.0107 14.7518C13.4715 14.0284 13.105 13.1912 12.9394 12.3042V12.3227H12.9302ZM10.0486 13.3017L9.99316 13.0985L9.69762 13.1909C9.00814 13.3953 8.29251 13.498 7.57338 13.4957C3.85134 13.4957 0.831224 10.7617 0.831224 7.40887C0.831224 4.05603 3.85134 1.33128 7.57338 1.33128C11.2677 1.33128 14.1308 4.06527 14.1308 7.42734C14.1308 9.0899 13.5767 10.6324 12.2652 11.7869L12.0805 11.9347V12.1749L12.0989 12.452C12.226 13.236 12.5018 13.9884 12.9117 14.6687C12.1927 14.5571 11.5078 14.2857 10.9075 13.8744C10.6489 13.7174 10.2425 13.5234 10.0393 13.3294L10.0486 13.311V13.3017Z" fill="#5F5F5F" fill-opacity="0.75"/>
</svg>
