<svg width="15" height="16" viewBox="0 0 15 16" fill="none" xmlns="http://www.w3.org/2000/svg">
<path d="M9.68744 7.99998C9.68744 9.20811 8.70806 10.1875 7.49994 10.1875C6.29182 10.1875 5.31244 9.20811 5.31244 7.99998C5.31244 6.79186 6.29182 5.81248 7.49994 5.81248C8.70806 5.81248 9.68744 6.79186 9.68744 7.99998Z" fill="#5F5F5F" fill-opacity="0.75"/>
<path fill-rule="evenodd" clip-rule="evenodd" d="M7.50002 2.68756C5.35508 2.68756 3.67221 3.64642 2.46621 4.71295C1.26269 5.77728 0.509019 6.96961 0.206012 7.50084C0.0280908 7.81277 0.0280902 8.18735 0.206012 8.49928C0.509018 9.03051 1.26269 10.2228 2.46621 11.2872C3.67221 12.3537 5.35508 13.3126 7.50002 13.3126C9.64497 13.3126 11.3278 12.3537 12.5338 11.2871C13.7373 10.2228 14.491 9.03046 14.794 8.49923C14.9719 8.1873 14.9719 7.81272 14.794 7.5008C14.491 6.96958 13.7373 5.77725 12.5338 4.71293C11.3278 3.64641 9.64496 2.68756 7.50002 2.68756ZM1.02035 7.96533C1.29628 7.48159 1.99007 6.38553 3.08727 5.41522C4.18198 4.44711 5.65306 3.62506 7.50002 3.62506C9.34698 3.62506 10.8181 4.4471 11.9128 5.41521C13.0099 6.38551 13.7037 7.48155 13.9797 7.96529C13.9879 7.97966 13.9899 7.99127 13.9899 8.00002C13.9899 8.00876 13.9879 8.02037 13.9797 8.03474C13.7037 8.51849 13.01 9.61456 11.9128 10.5849C10.8181 11.553 9.34698 12.3751 7.50002 12.3751C5.65306 12.3751 4.18198 11.553 3.08727 10.5849C1.99007 9.61459 1.29628 8.51853 1.02035 8.03479C1.01216 8.02041 1.01007 8.00881 1.01007 8.00006C1.01007 7.99131 1.01216 7.97971 1.02035 7.96533Z" fill="#5F5F5F" fill-opacity="0.75"/>
</svg>
