<svg width="14" height="14" viewBox="0 0 14 14" fill="none" xmlns="http://www.w3.org/2000/svg">
<path d="M9.04168 1.3125C9.04168 1.07088 9.23755 0.875 9.47918 0.875H12.6875C12.9291 0.875 13.125 1.07088 13.125 1.3125V4.52083C13.125 4.76246 12.9291 4.95833 12.6875 4.95833C12.4459 4.95833 12.25 4.76246 12.25 4.52083V2.36872L8.62187 5.99686C8.45102 6.16771 8.17401 6.16771 8.00315 5.99686C7.8323 5.826 7.8323 5.54899 8.00315 5.37814L11.6313 1.75H9.47918C9.23755 1.75 9.04168 1.55412 9.04168 1.3125Z" fill="#5F5F5F"/>
<path d="M1.45834 2.47917C1.45834 1.91538 1.91539 1.45833 2.47918 1.45833H7.43751C7.67913 1.45833 7.87501 1.65421 7.87501 1.89583C7.87501 2.13746 7.67913 2.33333 7.43751 2.33333H2.47918C2.39864 2.33333 2.33334 2.39863 2.33334 2.47917V11.5208C2.33334 11.6014 2.39864 11.6667 2.47918 11.6667H11.5208C11.6014 11.6667 11.6667 11.6014 11.6667 11.5208V6.5625C11.6667 6.32088 11.8626 6.125 12.1042 6.125C12.3458 6.125 12.5417 6.32088 12.5417 6.5625V11.5208C12.5417 12.0846 12.0846 12.5417 11.5208 12.5417H2.47918C1.91539 12.5417 1.45834 12.0846 1.45834 11.5208V2.47917Z" fill="#5F5F5F"/>
</svg>
