<svg width="15" height="16" viewBox="0 0 15 16" fill="none" xmlns="http://www.w3.org/2000/svg">
<path fill-rule="evenodd" clip-rule="evenodd" d="M5.46875 12.5312C5.46875 13.6531 6.37817 14.5625 7.5 14.5625C8.62183 14.5625 9.53125 13.6531 9.53125 12.5312C9.53125 11.5708 8.86459 10.766 7.96875 10.5544V8.3125H9.53125C10.8257 8.3125 11.875 7.26317 11.875 5.96875V5.44565C12.7708 5.23403 13.4375 4.42924 13.4375 3.46875C13.4375 2.34692 12.5281 1.4375 11.4062 1.4375C10.2844 1.4375 9.375 2.34692 9.375 3.46875C9.375 4.42924 10.0417 5.23403 10.9375 5.44565V5.96875C10.9375 6.7454 10.3079 7.375 9.53125 7.375H5.46875C4.6921 7.375 4.0625 6.7454 4.0625 5.96875V5.44565C4.95834 5.23403 5.625 4.42924 5.625 3.46875C5.625 2.34692 4.71558 1.4375 3.59375 1.4375C2.47192 1.4375 1.5625 2.34692 1.5625 3.46875C1.5625 4.42924 2.22916 5.23403 3.125 5.44565V5.96875C3.125 7.26317 4.17433 8.3125 5.46875 8.3125H7.03125V10.5544C6.13541 10.766 5.46875 11.5708 5.46875 12.5312ZM7.5 13.625C6.89594 13.625 6.40625 13.1353 6.40625 12.5312C6.40625 11.9272 6.89594 11.4375 7.5 11.4375C8.10406 11.4375 8.59375 11.9272 8.59375 12.5312C8.59375 13.1353 8.10406 13.625 7.5 13.625ZM3.59375 4.5625C2.98969 4.5625 2.5 4.07281 2.5 3.46875C2.5 2.86469 2.98969 2.375 3.59375 2.375C4.19781 2.375 4.6875 2.86469 4.6875 3.46875C4.6875 4.07281 4.19781 4.5625 3.59375 4.5625ZM10.3125 3.46875C10.3125 4.07281 10.8022 4.5625 11.4062 4.5625C12.0103 4.5625 12.5 4.07281 12.5 3.46875C12.5 2.86469 12.0103 2.375 11.4062 2.375C10.8022 2.375 10.3125 2.86469 10.3125 3.46875Z" fill="#5F5F5F" fill-opacity="0.75"/>
</svg>
