<svg width="15" height="16" viewBox="0 0 15 16" fill="none" xmlns="http://www.w3.org/2000/svg">
<path fill-rule="evenodd" clip-rule="evenodd" d="M7.50001 0.65625C7.67844 0.65625 7.84139 0.757546 7.92036 0.917547L9.83181 4.79056L14.1059 5.41163C14.2825 5.43729 14.4292 5.56096 14.4843 5.73066C14.5395 5.90035 14.4935 6.08663 14.3657 6.21117L11.2729 9.22589L12.003 13.4828C12.0332 13.6586 11.9609 13.8363 11.8166 13.9412C11.6722 14.0461 11.4808 14.0599 11.3229 13.9769L7.50001 11.9671L3.67712 13.9769C3.51919 14.0599 3.32782 14.0461 3.18347 13.9412C3.03912 13.8363 2.96682 13.6586 2.99699 13.4828L3.72709 9.2259L0.634307 6.21117C0.506539 6.08663 0.460556 5.90035 0.515693 5.73066C0.570829 5.56096 0.717523 5.43729 0.894095 5.41163L5.16822 4.79056L7.07967 0.917547C7.15863 0.757546 7.32159 0.65625 7.50001 0.65625ZM7.50001 2.18416L5.89985 5.42646C5.83157 5.56481 5.69958 5.6607 5.54691 5.68288L1.96883 6.20281L4.55795 8.72658C4.66843 8.83427 4.71884 8.98943 4.69276 9.14149L4.08155 12.7051L7.28189 11.0226C7.41844 10.9508 7.58158 10.9508 7.71814 11.0226L10.9185 12.7051L10.3073 9.14149C10.2812 8.98943 10.3316 8.83427 10.4421 8.72658L13.0312 6.20281L9.45312 5.68288C9.30044 5.6607 9.16846 5.56481 9.10018 5.42646L7.50001 2.18416Z" fill="#5F5F5F" fill-opacity="0.75"/>
</svg>
