<svg width="103" height="103" viewBox="0 0 103 103" fill="none" xmlns="http://www.w3.org/2000/svg">
<path d="M83 53.7213L83 33C83 31.8954 82.1046 31 81 31L22 31C20.8954 31 20 31.8954 20 33L20 44.082L74.3846 44.082C74.9369 44.082 75.3846 44.5297 75.3846 45.082L75.3846 53.7213L83 53.7213Z" fill="#6E32ED"/>
<path d="M83 68.3115L83 57.8525L61.0769 57.8525C59.4201 57.8525 58.0769 56.5093 58.0769 54.8525L58.0769 47.5246L49.7692 47.5246L49.7692 68.3115C49.7692 70.5206 51.5601 72.3115 53.7692 72.3115L79 72.3115C81.2091 72.3115 83 70.5206 83 68.3115Z" fill="#6E32ED"/>
<path d="M20 48.2131L27.6154 48.2131L27.6154 55.541C27.6154 57.1978 28.9585 58.541 30.6154 58.541L47 58.541L47 69C47 71.2091 45.2091 73 43 73L24 73C21.7909 73 20 71.2091 20 69L20 48.2131Z" fill="#6E32ED"/>
<rect x="2.5" y="2.5" width="98" height="98" rx="12.5" stroke="#6E32ED" stroke-width="5"/>
</svg>
